<svg width="34" height="34" viewBox="0 0 34 34" fill="none" xmlns="http://www.w3.org/2000/svg">
<path d="M17 33.6667C7.79504 33.6667 0.333374 26.205 0.333374 17C0.333374 7.79504 7.79504 0.333374 17 0.333374C26.205 0.333374 33.6667 7.79504 33.6667 17C33.6667 26.205 26.205 33.6667 17 33.6667ZM17 30.3334C20.5363 30.3334 23.9276 28.9286 26.4281 26.4281C28.9286 23.9276 30.3334 20.5363 30.3334 17C30.3334 13.4638 28.9286 10.0724 26.4281 7.57195C23.9276 5.07147 20.5363 3.66671 17 3.66671C13.4638 3.66671 10.0724 5.07147 7.57195 7.57195C5.07147 10.0724 3.66671 13.4638 3.66671 17C3.66671 20.5363 5.07147 23.9276 7.57195 26.4281C10.0724 28.9286 13.4638 30.3334 17 30.3334V30.3334ZM17 25.3334C14.7899 25.3334 12.6703 24.4554 11.1075 22.8926C9.54468 21.3298 8.66671 19.2102 8.66671 17C8.66671 14.7899 9.54468 12.6703 11.1075 11.1075C12.6703 9.54468 14.7899 8.66671 17 8.66671C19.2102 8.66671 21.3298 9.54468 22.8926 11.1075C24.4554 12.6703 25.3334 14.7899 25.3334 17C25.3334 19.2102 24.4554 21.3298 22.8926 22.8926C21.3298 24.4554 19.2102 25.3334 17 25.3334V25.3334Z" fill="#1C69DC"/>
</svg>
