<svg width="80" height="80" viewBox="0 0 80 80" fill="none" xmlns="http://www.w3.org/2000/svg">
<rect x="0.5" y="0.5" width="79" height="79" rx="19.5" fill="white" stroke="#1E6BDD"/>
<g clip-path="url(#clip0_272_1231)">
<path d="M38.3334 20.905C38.8834 20.8567 39.4384 20.8334 40 20.8334C50.585 20.8334 59.1667 29.415 59.1667 40C59.1667 40.5617 59.1434 41.1167 59.095 41.6667H56.585C55.7484 50.0884 48.6417 56.6667 40 56.6667C30.795 56.6667 23.3334 49.205 23.3334 40C23.3334 31.3584 29.9117 24.2517 38.3334 23.4167V20.9034V20.905ZM38.3334 41.6667V26.77C34.9712 27.1978 31.8981 28.8898 29.7387 31.5021C27.5792 34.1143 26.4955 37.4508 26.7077 40.8334C26.92 44.216 28.4123 47.3909 30.8813 49.7127C33.3503 52.0346 36.6108 53.3292 40 53.3334C43.2477 53.3333 46.3838 52.1481 48.8196 50C51.2555 47.852 52.8237 44.8889 53.23 41.6667H38.3334ZM55.7467 38.3334C55.3646 34.7299 53.7584 31.3664 51.1961 28.804C48.6337 26.2417 45.2702 24.6355 41.6667 24.2534V38.3334H55.7467Z" fill="#1C69DC"/>
</g>
<defs>
<clipPath id="clip0_272_1231">
<rect width="40" height="40" fill="white" transform="translate(20 20)"/>
</clipPath>
</defs>
</svg>
