<svg width="40" height="40" viewBox="0 0 40 40" fill="none" xmlns="http://www.w3.org/2000/svg">
<g clip-path="url(#clip0_272_1284)">
<path d="M20 36.6667C10.795 36.6667 3.33331 29.205 3.33331 20C3.33331 10.795 10.795 3.33337 20 3.33337C29.205 3.33337 36.6666 10.795 36.6666 20C36.6666 29.205 29.205 36.6667 20 36.6667ZM16.1833 32.7784C14.539 29.2906 13.5864 25.5171 13.3783 21.6667H6.76998C7.09429 24.2315 8.15652 26.647 9.82759 28.6196C11.4987 30.5921 13.7067 32.0369 16.1833 32.7784ZM16.7166 21.6667C16.9683 25.7317 18.13 29.55 20 32.92C21.9205 29.461 23.0424 25.6158 23.2833 21.6667H16.7166ZM33.23 21.6667H26.6216C26.4135 25.5171 25.461 29.2906 23.8166 32.7784C26.2933 32.0369 28.5013 30.5921 30.1724 28.6196C31.8434 26.647 32.9057 24.2315 33.23 21.6667ZM6.76998 18.3334H13.3783C13.5864 14.483 14.539 10.7095 16.1833 7.22171C13.7067 7.96317 11.4987 9.40796 9.82759 11.3805C8.15652 13.3531 7.09429 15.7685 6.76998 18.3334ZM16.7183 18.3334H23.2816C23.0412 14.3844 21.9199 10.5393 20 7.08004C18.0794 10.5391 16.9576 14.3842 16.7166 18.3334H16.7183ZM23.8166 7.22171C25.461 10.7095 26.4135 14.483 26.6216 18.3334H33.23C32.9057 15.7685 31.8434 13.3531 30.1724 11.3805C28.5013 9.40796 26.2933 7.96317 23.8166 7.22171Z" fill="#1C69DC"/>
</g>
<defs>
<clipPath id="clip0_272_1284">
<rect width="40" height="40" fill="white"/>
</clipPath>
</defs>
</svg>
