<svg width="34" height="30" viewBox="0 0 34 30" fill="none" xmlns="http://www.w3.org/2000/svg">
<path d="M1.99998 0H32C32.442 0 32.8659 0.175595 33.1785 0.488155C33.4911 0.800716 33.6666 1.22464 33.6666 1.66667V28.3333C33.6666 28.7754 33.4911 29.1993 33.1785 29.5118C32.8659 29.8244 32.442 30 32 30H1.99998C1.55795 30 1.13403 29.8244 0.821468 29.5118C0.508908 29.1993 0.333313 28.7754 0.333313 28.3333V1.66667C0.333313 1.22464 0.508908 0.800716 0.821468 0.488155C1.13403 0.175595 1.55795 0 1.99998 0ZM30.3333 13.3333H3.66665V26.6667H30.3333V13.3333ZM30.3333 10V3.33333H3.66665V10H30.3333ZM12 5H15.3333V8.33333H12V5ZM5.33331 5H8.66665V8.33333H5.33331V5Z" fill="#1C69DC"/>
</svg>
